<svg width="32" height="32" viewBox="0 0 32 32" fill="none" xmlns="http://www.w3.org/2000/svg">
<g clip-path="url(#clip0_1591_21)">
<g clip-path="url(#clip1_1591_21)">
<path d="M2.02884 6.51074L12.5742 14.9831C10.411 14.1719 8.42813 16.0646 8.78866 18.5883C9.39858 17.479 10.2831 17.9027 12.5742 20.0304L29.3385 6.51074V12.9101C29.1937 15.5675 28.0767 16.4251 21.5873 22.0133L25.634 24.6271L29.3385 22.0133V27.5113L25.634 24.6271H21.5873V27.5113H17.4412L3.83146 16.6054C1.96047 15.0849 1.93561 12.107 2.02884 6.51074Z" fill="#0768EA"/>
<path d="M11.2225 16.9694C11.4991 16.9694 11.7233 16.7451 11.7233 16.4686C11.7233 16.192 11.4991 15.9678 11.2225 15.9678C10.9459 15.9678 10.7217 16.192 10.7217 16.4686C10.7217 16.7451 10.9459 16.9694 11.2225 16.9694Z" fill="#CCFF02"/>
<path d="M2.02884 6.51074L12.5742 14.9831C10.411 14.1719 8.42813 16.0646 8.78866 18.5883C9.39858 17.479 10.2831 17.9027 12.5742 20.0304L29.3385 6.51074V12.9101C29.1937 15.5675 28.0767 16.4251 21.5873 22.0133L25.634 24.6271L29.3385 22.0133V27.5113L25.634 24.6271H21.5873V27.5113H17.4412L3.83146 16.6054C1.96047 15.0849 1.93561 12.107 2.02884 6.51074Z" fill="#0768EA"/>
<path d="M11.2225 16.9694C11.4991 16.9694 11.7233 16.7451 11.7233 16.4686C11.7233 16.192 11.4991 15.9678 11.2225 15.9678C10.9459 15.9678 10.7217 16.192 10.7217 16.4686C10.7217 16.7451 10.9459 16.9694 11.2225 16.9694Z" fill="#CCFF02"/>
<path d="M2.02884 6.51074L12.5742 14.9831C10.411 14.1719 8.42813 16.0646 8.78866 18.5883C9.39858 17.479 10.2831 17.9027 12.5742 20.0304L29.3385 6.51074V12.9101C29.1937 15.5675 28.0767 16.4251 21.5873 22.0133L25.634 24.6271L29.3385 22.0133V27.5113L25.634 24.6271H21.5873V27.5113H17.4412L3.83146 16.6054C1.96047 15.0849 1.93561 12.107 2.02884 6.51074Z" fill="#0768EA"/>
<path d="M11.2225 16.9694C11.4991 16.9694 11.7233 16.7451 11.7233 16.4686C11.7233 16.192 11.4991 15.9678 11.2225 15.9678C10.9459 15.9678 10.7217 16.192 10.7217 16.4686C10.7217 16.7451 10.9459 16.9694 11.2225 16.9694Z" fill="#CCFF02"/>
</g>
</g>
<defs>
<clipPath id="clip0_1591_21">
<rect width="32" height="32" fill="white"/>
</clipPath>
<clipPath id="clip1_1591_21">
<rect width="131" height="24.5794" fill="white" transform="translate(2 3)"/>
</clipPath>
</defs>
</svg>
