<svg width="485" height="91" viewBox="0 0 485 91" fill="none" xmlns="http://www.w3.org/2000/svg">
<path d="M464.07 27.2498C470.249 27.2498 475.11 29.0206 478.651 32.5623C482.268 36.104 484.077 41.0397 484.077 47.3695C484.077 49.4794 483.851 51.7401 483.399 54.1514L476.843 91H457.627L463.731 56.7512C463.957 55.4701 464.07 54.3398 464.07 53.3602C464.07 50.1953 463.166 47.7463 461.357 46.0131C459.624 44.2799 457.175 43.4134 454.01 43.4134C450.242 43.4134 447.077 44.5814 444.515 46.9174C441.953 49.2534 440.296 52.5313 439.542 56.7512V56.5251L433.438 91H414.11L428.917 7.35608H448.245L443.159 36.2923C445.646 33.5042 448.698 31.3189 452.315 29.7365C455.932 28.0787 459.85 27.2498 464.07 27.2498Z" fill="#CCFF02"/>
<path d="M417.906 27.2498C424.085 27.2498 428.945 29.0206 432.487 32.5623C436.104 36.104 437.912 41.0397 437.912 47.3695C437.912 49.4794 437.686 51.7401 437.234 54.1514L430.678 91H411.463L417.566 56.7512C417.793 55.4701 417.906 54.3398 417.906 53.3602C417.906 50.1953 417.001 47.7463 415.193 46.0131C413.46 44.2799 411.011 43.4134 407.846 43.4134C404.078 43.4134 400.913 44.5814 398.351 46.9174C395.789 49.2534 394.131 52.5313 393.378 56.7512V56.5251L387.274 91H367.945L382.753 7.35608H402.081L396.995 36.2923C399.481 33.5042 402.533 31.3189 406.15 29.7365C409.767 28.0787 413.686 27.2498 417.906 27.2498Z" fill="#CCFF02"/>
<path d="M346.488 76.984H316.874L309.64 91H289.407L332.133 11.6514H354.513L369.208 91H348.749L346.488 76.984ZM344.227 62.2898L339.593 32.9014L324.447 62.2898H344.227Z" fill="#CCFF02"/>
<path d="M301.676 27.928L290.599 91H257.5L254.229 27.928H301.676Z" fill="#CCFF02"/>
<path d="M276.34 27.928L265.263 91H245.935L257.012 27.928H276.34Z" fill="#CCFF02"/>
<path d="M293.312 21.3722C290.298 21.3722 287.886 20.5809 286.078 18.9985C284.345 17.3407 283.478 15.2684 283.478 12.7817C283.478 9.39073 284.797 6.48957 287.434 4.07822C290.072 1.66686 293.274 0.461182 297.042 0.461182C300.056 0.461182 302.43 1.29009 304.163 2.9479C305.896 4.53035 306.763 6.60261 306.763 9.16467C306.763 12.4803 305.444 15.3438 302.807 17.7551C300.169 20.1665 297.004 21.3722 293.312 21.3722Z" fill="#0768EA"/>
<path d="M267.976 21.3722C264.962 21.3722 262.551 20.5809 260.742 18.9985C259.009 17.3407 258.142 15.2684 258.142 12.7817C258.142 9.39073 259.461 6.48957 262.098 4.07822C264.736 1.66686 267.938 0.461182 271.706 0.461182C274.72 0.461182 277.094 1.29009 278.827 2.9479C280.56 4.53035 281.427 6.60261 281.427 9.16467C281.427 12.4803 280.108 15.3438 277.471 17.7551C274.833 20.1665 271.669 21.3722 267.976 21.3722Z" fill="#0768EA"/>
<path d="M259.754 27.928L231.496 91H210.133L207.42 50.0823L189.9 91H168.65L162 26.5L182 25L182.892 73.0279L201.543 27.928H222.001L224.827 73.0279L241.556 27.928H259.754Z" fill="#CCFF02"/>
<path d="M184.341 11.6514L181.741 26.9107H160.604L149.301 91H129.972L141.275 26.9107H120.251L122.964 11.6514H184.341Z" fill="#CCFF02"/>
<path d="M0.106763 13L39.1486 44.367C31.14 41.3637 23.7988 48.3713 25.1336 57.7146C27.3917 53.6078 30.6666 55.1764 39.1486 63.0537L101.215 13V36.6921C100.679 46.5308 96.5435 49.706 72.5177 70.3949L87.5 80.0719L101.215 70.3949V90.75L87.5 80.0719H72.5177V90.75H57.1679L6.78058 50.3734C-0.146358 44.7439 -0.238404 33.7189 0.106763 13Z" fill="#0768EA"/>
<path d="M1.10767 13L38.8148 43.3659" stroke="black" stroke-width="0.667382"/>
<circle cx="34.1429" cy="49.8541" r="1.85409" fill="#CCFF02"/>
<path d="M0.106763 13L39.1486 44.367C31.14 41.3637 23.7988 48.3713 25.1336 57.7146C27.3917 53.6078 30.6666 55.1764 39.1486 63.0537L101.215 13V36.6921C100.679 46.5308 96.5435 49.706 72.5177 70.3949L87.5 80.0719L101.215 70.3949V90.75L87.5 80.0719H72.5177V90.75H57.1679L6.78058 50.3734C-0.146358 44.7439 -0.238404 33.7189 0.106763 13Z" fill="#0768EA"/>
<path d="M1.10767 13L38.8148 43.3659" stroke="black" stroke-width="0.667382"/>
<circle cx="34.1429" cy="49.8541" r="1.85409" fill="#CCFF02"/>
<path d="M0.106763 13L39.1486 44.367C31.14 41.3637 23.7988 48.3713 25.1336 57.7146C27.3917 53.6078 30.6666 55.1764 39.1486 63.0537L101.215 13V36.6921C100.679 46.5308 96.5435 49.706 72.5177 70.3949L87.5 80.0719L101.215 70.3949V90.75L87.5 80.0719H72.5177V90.75H57.1679L6.78058 50.3734C-0.146358 44.7439 -0.238404 33.7189 0.106763 13Z" fill="#0768EA"/>
<path d="M1.10767 13L38.8148 43.3659" stroke="black" stroke-width="0.667382"/>
<circle cx="34.1429" cy="49.8541" r="1.85409" fill="#CCFF02"/>
</svg>
